# xmcd
#
# Track frame offsets: 
#        150
#        25425
#        44025
#        110175
#        186375
#
# Disc length: 3187 seconds
#
# Revision: 0
# Processed by: cddbd v1.4PL0 Copyright (c) Steve Scherf et al.
# Submitted via: ExactAudioCopy v0.90b4
#
DISCID=4c0c7105
DTITLE=Van Morrison - An Evening In Brighton, disc 2
DYEAR=1994
DGENRE=Celtic
TTITLE0=Help Me
TTITLE1=Tupelo Honey
TTITLE2=Moondance > Fever > My Funny Valentine
TTITLE3=I'll Take Care Of You > It's A Man's Man's Man's World
TTITLE4=Lonely Avenue > Be Bop A Lula > You Give Me Nothing But The Bl
TTITLE4=ues
EXTD=
EXTT0=
EXTT1=
EXTT2=
EXTT3=
EXTT4=
PLAYORDER=
